<svg height="512" viewBox="0 0 64 64" width="512" xmlns="http://www.w3.org/2000/svg"><g id="Icons"><g><g><path d="m8 16v10l4-4 4 4v-10z" fill="#fa6450"/></g><g><path d="m8 16v10l2-2v-8z" fill="#dc4632"/></g><g><path d="m52 20.472v-8.472l-8-8h-26.025c2.437 1.825 4.025 4.727 4.025 8 0 3.262-1.577 6.154-4 7.981v10.848l-6-6v35.171h39.764l-3.764-7.528v-28c0-2.205 1.794-4 4-4z" fill="#f0f0f0"/></g><g><path d="m44 4v8h8z" fill="#d2d2d2"/></g><g><path d="m54 26.472h-4v-2c0-1.105.895-2 2-2 1.105 0 2 .895 2 2z" fill="#505050"/></g><g><path d="m50 28.472h4v23.528h-4z" fill="#505050"/></g><g><path d="m50 26.472h4v2h-4z" fill="#fab400"/></g><g><path d="m54 52-2 4-2-4z" fill="#fab400"/></g><g><path d="m54 26.472h-4v-2c0-1.105.895-2 2-2 1.105 0 2 .895 2 2z" fill="#505050"/></g><g><path d="m50 28.472h4v23.528h-4z" fill="#505050"/></g><g><path d="m50 26.472h4v2h-4z" fill="#fab400"/></g><g><path d="m54 52-2 4-2-4z" fill="#fab400"/></g><g><path d="m12 60h4v-31.171l-4-4z" fill="#d2d2d2"/></g><g><circle cx="12" cy="12" fill="#3cc8b4" r="8"/></g><g><path d="m6 12c0-4.079 3.055-7.438 7-7.931-.328-.041-.661-.069-1-.069-4.418 0-8 3.582-8 8s3.582 8 8 8c.339 0 .672-.028 1-.069-3.945-.493-7-3.852-7-7.931z" fill="#1eaa96"/></g><g><path d="m17 10-6 6-4-4 2-2 2 2 4-4z" fill="#f0f0f0"/></g><g><path d="m24 14h16v4h-16z" fill="#fa6450"/></g><g><path d="m20 20h24v2h-24z" fill="#d2d2d2"/></g><g><path d="m20 24h24v2h-24z" fill="#d2d2d2"/></g><g><path d="m20 28h24v2h-24z" fill="#d2d2d2"/></g><g><path d="m20 32h24v2h-24z" fill="#d2d2d2"/></g><g><path d="m20 36h24v2h-24z" fill="#d2d2d2"/></g><g><path d="m20 40h12v2h-12z" fill="#d2d2d2"/></g><g><path d="m38 48h6v2h-6z" fill="#fa6450"/></g></g></g></svg>