<?xml version="1.0" encoding="iso-8859-1"?>
<!-- Generator: Adobe Illustrator 19.0.0, SVG Export Plug-In . SVG Version: 6.00 Build 0)  -->
<svg version="1.1" id="Capa_1" xmlns="http://www.w3.org/2000/svg" xmlns:xlink="http://www.w3.org/1999/xlink" x="0px" y="0px"
	 viewBox="0 0 512 512" style="enable-background:new 0 0 512 512;" xml:space="preserve">
<circle style="fill:#005C83;" cx="256" cy="256" r="256"/>
<path style="fill:#00263F;" d="M263.226,511.893C401.269,508.066,512,394.968,512,256c0-12.301-0.887-24.393-2.564-36.231
	L389.333,99.667l-23.104,90.229L276,99.667l-8.819,104.514L162.667,99.667l-20.159,205.696L277.44,440.295L215,463.667
	L263.226,511.893z"/>
<path style="fill:#FFFFFF;" d="M349.333,99.667V252.5c0,22.332-18.168,40.5-40.5,40.5H276V99.667h-40V293h-32.833
	c-22.332,0-40.5-18.168-40.5-40.5V99.667h-40V252.5c0,44.388,36.112,80.5,80.5,80.5H236v90.667h-21v40h82v-40h-21V333h32.833
	c44.388,0,80.5-36.112,80.5-80.5V99.667H349.333z"/>
<path style="fill:#E0E0E0;" d="M349.333,99.667V252.5c0,22.332-18.168,40.5-40.5,40.5H276V99.667h-20.333v364H297v-40h-21V333
	h32.833c44.388,0,80.5-36.112,80.5-80.5V99.667H349.333z"/>
<g>
</g>
<g>
</g>
<g>
</g>
<g>
</g>
<g>
</g>
<g>
</g>
<g>
</g>
<g>
</g>
<g>
</g>
<g>
</g>
<g>
</g>
<g>
</g>
<g>
</g>
<g>
</g>
<g>
</g>
</svg>
