<svg id="Capa_1" enable-background="new 0 0 512 512" height="512" viewBox="0 0 512 512" width="512" xmlns="http://www.w3.org/2000/svg"><g><g><path d="m300.224 402.254h-44.224-44.224l-30 90h74.224 74.224z" fill="#cce6ff"/><path d="m300.224 402.254h-44.224v90h74.224z" fill="#b3ccff"/><path d="m256 60h-256v362h256 256v-362z" fill="#333e73"/><path d="m256 60h256v362h-256z" fill="#1f2859"/><path d="m256 90h-226v302h226 226v-302z" fill="#6cf"/><path d="m256 90h226v302h-226z" fill="#4da6ff"/><path d="m256 482h-135v30h135 135v-30z" fill="#e6f7ff"/><path d="m256 482h135v30h-135z" fill="#cce6ff"/></g><path d="m256 0c-41.4 0-75 33.6-75 75s33.6 75 75 75 75-33.6 75-75-33.6-75-75-75z" fill="#e6f7ff"/><g fill="#cce6ff"><path d="m331 75c0 41.4-33.6 75-75 75v-150c41.4 0 75 33.6 75 75z"/><path d="m376 240c-41.4 0-75 33.6-75 75v15h150v-15c0-41.4-33.6-75-75-75z"/><path d="m376 150c-24.901 0-45 20.099-45 45s20.099 45 45 45 45-20.099 45-45-20.099-45-45-45z"/></g><path d="m136 240c-41.4 0-75 33.6-75 75v15h150v-15c0-41.4-33.6-75-75-75z" fill="#e6f7ff"/><path d="m136 150c-24.901 0-45 20.099-45 45s20.099 45 45 45 45-20.099 45-45-20.099-45-45-45z" fill="#e6f7ff"/><circle cx="256" cy="75" fill="#333e73" r="45"/><path d="m301 75c0 24.899-20.099 45-45 45v-90c24.901 0 45 20.099 45 45z" fill="#1f2859"/><path d="m241 60h30v30h-30z" fill="#6cf"/><path d="m256 60h15v30h-15z" fill="#4da6ff"/></g></svg>